<svg xmlns="http://www.w3.org/2000/svg" viewBox="0 0 262.3 111.47"><defs><style>.cls-1{fill:#000430;}.cls-2{fill:#fff;}.cls-3{fill:#5affb8;}.cls-4{fill:none;stroke:#5affb8;stroke-miterlimit:10;stroke-width:1.41px;}</style></defs><g id="Layer_2" data-name="Layer 2"><g id="Layer_1-2" data-name="Layer 1"><path d="M179.37,39.23a1.54,1.54,0,0,1,.31,0h34.75a1.55,1.55,0,0,1,.31.06Z"/><path d="M221,39.23a2.11,2.11,0,0,1,.35,0h28c.3,0,.61,0,.91,0Z"/><path d="M82.7,39.23a1.57,1.57,0,0,1,.3,0h22.74c.35,0,.7,0,1,0Z"/><path d="M.07,39.23a1.28,1.28,0,0,1,.27,0h9.1a1.37,1.37,0,0,1,.28,0Z"/><path class="cls-1" d="M251.36,39.23c.82.11,1.65.2,2.47.34a11.6,11.6,0,0,1,4.25,1.56,7.8,7.8,0,0,1,3.36,4.8,14.56,14.56,0,0,1,.05,7.33A7.12,7.12,0,0,1,257,58.13a21.86,21.86,0,0,1-2.12.69c-.2.06-.28.12-.29.34a2,2,0,0,0,.33,1.2q3.61,5.61,7.2,11.24c0,.06.07.13.14.23l-.31,0H251.36a.46.46,0,0,1-.46-.26l-6.16-10.34a.4.4,0,0,0-.39-.22H231.06c-.3,0-.3.15-.3.36V71.83h-9.71V39.69c0-.16,0-.31,0-.46Zm-20.6,15.22h15.91a7.73,7.73,0,0,0,1.08-.07A3.34,3.34,0,0,0,250.86,52a5.27,5.27,0,0,0,0-3,2.88,2.88,0,0,0-2-2.1,7.09,7.09,0,0,0-2-.33c-5.25,0-10.51,0-15.77,0-.29,0-.37.08-.36.37,0,2.39,0,4.78,0,7.18Z"/><path class="cls-1" d="M214.74,39.23v6.6H189.09v6.25h24.57v6.08H189.09v7h26.15v6.67H179.38a2.64,2.64,0,0,1,0-.28V39.42a1.21,1.21,0,0,1,0-.19Z"/><path class="cls-1" d="M9.71,39.23c0,.15,0,.3,0,.45V64.35h25.8v7.48H0V39.68c0-.15,0-.3,0-.45Z"/><path class="cls-2" d="M158.83,72c-1,.21-2,.5-3.07.63a41.91,41.91,0,0,1-13.22-.56l-.18-.07Z"/><path class="cls-1" d="M172.94,103.63h0c0-.14,0-.29,0-.43V91.77H153v5.89h9.09a3.91,3.91,0,0,1-1.51,3.21,9.54,9.54,0,0,1-4.17,2.1,18.73,18.73,0,0,1-5.53.53,16.93,16.93,0,0,1-6.06-1.1,8.36,8.36,0,0,1-5.17-5.52,13.34,13.34,0,0,1-.45-4.87,8.84,8.84,0,0,1,7.27-8.34,21.12,21.12,0,0,1,6.39-.48,12,12,0,0,1,4.31.89,7.26,7.26,0,0,1,3.58,3.18.45.45,0,0,0,.47.29h11.56a10.55,10.55,0,0,0-1.87-5,14.36,14.36,0,0,0-6.9-5,33,33,0,0,0-9.8-1.77,50.38,50.38,0,0,0-8,.18,28.94,28.94,0,0,0-8.35,2,15.76,15.76,0,0,0-5.61,3.78,14.13,14.13,0,0,0-3.47,7,23,23,0,0,0-.32,6.57,16,16,0,0,0,1.5,5.74c.44.87,1,1.69,1.5,2.53h.07c.59.64,1.14,1.34,1.8,1.93a17.76,17.76,0,0,0,6.6,3.51,37.76,37.76,0,0,0,10.34,1.51,29.48,29.48,0,0,0,8.42-.84,14,14,0,0,0,6.52-3.66l1.19-1.25v4.64h6.53v-.4c0-1.81,0-3.63,0-5.44"/><path class="cls-1" d="M76.88,109.48v-.57l0-5.28v-.84H50.72v-7H75c.29,0,.39-.06.39-.38,0-1.78,0-3.56,0-5.35,0-.1,0-.21,0-.35H50.72V83.47H76.34V76.85H41v26.39c0,.13,0,.26,0,.39s0,.26,0,.39v5.46Z"/><path class="cls-1" d="M122.93,86.12a11.53,11.53,0,0,0-4.36-6.1,16.19,16.19,0,0,0-5.22-2.31,30.26,30.26,0,0,0-7.76-.88q-11.24,0-22.48,0H82.7V109.5h21.77c1.31,0,2.62,0,3.93-.1a22.85,22.85,0,0,0,7.43-1.57,11.73,11.73,0,0,0,5.46-4.19,12.8,12.8,0,0,0,1.65-3.41,20.75,20.75,0,0,0,.94-5.64,24,24,0,0,0-.95-8.46m-30.5-2.07H103.5a13.87,13.87,0,0,1,4.85.84,6.83,6.83,0,0,1,4.44,5,13.45,13.45,0,0,1,0,6.46,7,7,0,0,1-5.24,5.33,14.83,14.83,0,0,1-4.08.57h-11Z"/><path class="cls-1" d="M153,54.15V60h9.12a7.13,7.13,0,0,1-.07.86,4.34,4.34,0,0,1-1.53,2.43,10.71,10.71,0,0,1-5.35,2.3,22.33,22.33,0,0,1-5.23.22,16.21,16.21,0,0,1-5.15-1.07,8.38,8.38,0,0,1-5.16-5.6,13.39,13.39,0,0,1-.34-5.49,8.69,8.69,0,0,1,1.73-4.3,9.21,9.21,0,0,1,5.11-3.24,20.86,20.86,0,0,1,6.77-.56,11.45,11.45,0,0,1,4.46,1,7.15,7.15,0,0,1,3.44,3.19c.1.2.24.19.4.19h11.23l.33,0c0-.06,0-.08,0-.1a10.59,10.59,0,0,0-2.92-6.17,16,16,0,0,0-6.95-4l-1-.33h0a5.48,5.48,0,0,0-.56-.1,35.21,35.21,0,0,0-5.66-.87,49.59,49.59,0,0,0-11.74.4c-.86.14-1.72.38-2.58.57h0l-.59.13a22.75,22.75,0,0,0-4,1.5,13.79,13.79,0,0,0-7.54,8.66A21.38,21.38,0,0,0,128.81,60a13.92,13.92,0,0,0,3.41,6.84,16.86,16.86,0,0,0,7.17,4.38c.89.3,1.8.53,2.7.79H159l.36-.14A13.76,13.76,0,0,0,165.66,68l.73-.78v4.64h6.51V54.15Z"/><path d="M179.37,39.23a1.54,1.54,0,0,1,.31,0h34.75a1.55,1.55,0,0,1,.31.06Z"/><path d="M221,39.23a2.11,2.11,0,0,1,.35,0h28c.3,0,.61,0,.91,0Z"/><path class="cls-1" d="M123.89,54.56a21.71,21.71,0,0,0-.84-5.66,11.6,11.6,0,0,0-5.76-7.31,20.05,20.05,0,0,0-6.92-2.1c-.78-.1-1.56-.17-2.34-.26H82.69V71.85h22.48c1,0,1.94,0,2.91-.07a23.15,23.15,0,0,0,8.43-1.9,11.93,11.93,0,0,0,3.69-2.56,12.68,12.68,0,0,0,3-5.86A25.06,25.06,0,0,0,123.89,54.56Zm-11.45,5.27a6.7,6.7,0,0,1-4,4,13.23,13.23,0,0,1-4.81.85c-3.65,0-7.29,0-10.93,0l-.23,0V46.42h.34c3.59,0,7.17,0,10.76,0a13.28,13.28,0,0,1,4.94.88,6.83,6.83,0,0,1,4.37,5.18A12.79,12.79,0,0,1,112.44,59.83Z"/><path d="M.07,39.23a1.28,1.28,0,0,1,.27,0h9.1a1.37,1.37,0,0,1,.28,0Z"/><path class="cls-1" d="M158.83,72c-1,.21-2,.5-3.07.63a41.91,41.91,0,0,1-13.22-.56l-.18-.07Z"/><path class="cls-1" d="M76.86,66v-.84H50.72v-7H75c.29,0,.39-.06.39-.38,0-1.78,0-3.56,0-5.34,0-.11,0-.22,0-.36H50.72V45.85H76.34V39.23H52.55L41,50.8V65.62c0,.13,0,.26,0,.39s0,.26,0,.39v5.46h35.9v-.57C76.87,69.53,76.86,67.77,76.86,66Z"/><circle class="cls-3" cx="39.84" cy="41.39" r="3.05"/><path class="cls-1" d="M179.38,76.85v26.39c0,.13,0,.26,0,.39s0,.26,0,.39v5.46H201l6.69-6.69H189.12v-7h24.23c.29,0,.39-.06.39-.38,0-1.78,0-3.56,0-5.35,0-.1,0-.21,0-.35H189.12V83.47h25.61V76.85Z"/><circle class="cls-3" cx="211.88" cy="108.41" r="3.05"/><polyline class="cls-4" points="39.84 41.39 80.37 0.86 237.06 80.02 210.07 110.54"/></g></g></svg>