<?xml version="1.0" encoding="utf-8"?>
<!-- Generator: Adobe Illustrator 22.1.0, SVG Export Plug-In . SVG Version: 6.00 Build 0)  -->
<svg version="1.1" xmlns="http://www.w3.org/2000/svg" xmlns:xlink="http://www.w3.org/1999/xlink" x="0px" y="0px"
	 viewBox="0 0 283.5 120.7" style="enable-background:new 0 0 283.5 120.7;" xml:space="preserve">
<style type="text/css">
	.st0{fill:#FFFFFF;}
	.st1{fill:#5AFFB8;}
	.st2{fill:#000430;}
	.st3{fill:none;stroke:#5AFFB8;stroke-width:1.7008;stroke-miterlimit:10;}
</style>
<g id="Layer_1">
	<polygon class="st0" points="191.3,43.1 191.3,55 191.3,76.8 228.4,76.8 228.4,69.9 201.3,69.9 201.3,62.7 226.4,62.7 226.4,56.4 
		201.3,56.4 201.3,49.9 227.8,49.9 227.8,43.1 	"/>
	<path class="st0" d="M132.9,91.6c-0.8-2.6-2.3-4.7-4.5-6.3c-1.6-1.1-3.5-1.9-5.4-2.4c-2.6-0.7-5.3-0.9-8-0.9c-7.7,0-15.5,0-23.2,0
		h-0.4v27.7v6.1h0.8c7.2,0,14.5,0,21.7,0c1.4,0,2.7,0,4.1-0.1c2.6-0.2,5.2-0.6,7.7-1.6c2.3-0.9,4.2-2.3,5.6-4.3
		c0.8-1.1,1.3-2.3,1.7-3.5c0.6-1.9,0.9-3.8,1-5.8C134,97.4,133.8,94.4,132.9,91.6 M101.4,89.4h0.4c3.7,0,7.3,0,11,0
		c1.7,0,3.4,0.2,5,0.9c2.4,0.9,4,2.7,4.6,5.2c0.5,2.2,0.5,4.5,0,6.7c-0.7,2.9-2.6,4.7-5.4,5.5c-1.4,0.4-2.8,0.6-4.2,0.6
		c-3.7,0-7.4,0-11.1,0h-0.3V89.4z"/>
	<path class="st0" d="M276.9,76.6c-2.5-3.9-4.9-7.8-7.4-11.6c-0.3-0.4-0.4-0.8-0.3-1.2c0-0.2,0.1-0.3,0.3-0.4
		c0.7-0.2,1.5-0.4,2.2-0.7c2.3-1,4-2.5,4.6-5c0.6-2.5,0.6-5.1-0.1-7.6c-0.5-2.1-1.6-3.8-3.5-5c-1.3-0.9-2.8-1.3-4.4-1.6
		c-0.8-0.1-1.7-0.2-2.5-0.4h-1.2c-0.3,0-0.6-0.1-0.9-0.1c-9.6,0-19.3,0-28.9,0c-0.1,0-0.2,0-0.4,0.1h0c0,0.2,0,0.3,0,0.5
		c0,10.9,0,21.9,0,32.8v0.5h10v-0.4c0-3.5,0-6.9,0-10.4c0-0.2,0-0.4,0.3-0.4c4.6,0,9.2,0,13.7,0c0.2,0,0.3,0.1,0.4,0.2
		c2.1,3.6,4.3,7.1,6.4,10.7c0.1,0.2,0.2,0.3,0.5,0.3c3.7,0,7.3,0,11,0c0.1,0,0.2,0,0.3,0C277,76.7,276.9,76.6,276.9,76.6z
		 M265.2,56.3c-0.5,1.6-1.7,2.3-3.2,2.5c-0.4,0.1-0.7,0.1-1.1,0.1c-5.3,0-10.7,0-16,0c-0.1,0-0.2,0-0.4,0v-0.4c0-2.5,0-5,0-7.4
		c0-0.3,0.1-0.4,0.4-0.4c5.4,0,10.9,0,16.3,0c0.7,0,1.4,0.2,2.1,0.3c1.1,0.3,1.7,1.1,2.1,2.2C265.5,54.2,265.5,55.2,265.2,56.3z"/>
	<path class="st0" d="M133.9,58.9c-0.1-2-0.3-3.9-0.9-5.9c-1-3.3-2.9-5.9-6-7.6c-2.2-1.2-4.7-1.8-7.2-2.2c-0.8-0.1-1.6-0.2-2.4-0.3
		h-1.3c0,0,0,0,0,0h0c-0.4,0-0.7-0.1-1.1-0.1c-7.8,0-15.7,0-23.5,0c-0.1,0-0.2,0-0.3,0.1h0c0,0,0,0,0,0h0v33.7c0.2,0,0.3,0,0.4,0
		c7.6,0,15.2,0,22.8,0c1,0,2,0,3-0.1c3-0.2,5.9-0.7,8.7-2c1.4-0.7,2.7-1.5,3.8-2.7c1.6-1.7,2.6-3.8,3.2-6.1
		C133.8,63.7,134,61.3,133.9,58.9z M122.1,64.4c-0.8,2-2.2,3.3-4.2,4.1c-1.6,0.6-3.3,0.9-5,0.9c-3.8,0-7.5,0-11.3,0
		c-0.1,0-0.1,0-0.2,0V50.5c0.1,0,0.2,0,0.4,0c3.7,0,7.4,0,11.1,0c1.8,0,3.5,0.3,5.1,0.9c2.5,1,4,2.8,4.5,5.4
		C123,59.4,123,61.9,122.1,64.4z"/>
	<path class="st0" d="M164,58.5v6.1h9.4c0,0.3,0,0.6-0.1,0.9c-0.2,1-0.8,1.8-1.6,2.5c-1.6,1.4-3.5,2-5.5,2.4
		c-1.8,0.3-3.6,0.3-5.4,0.2c-1.8-0.1-3.6-0.4-5.3-1.1c-2.7-1.1-4.5-3-5.3-5.8c-0.5-1.9-0.6-3.8-0.4-5.7c0.2-1.6,0.8-3.1,1.8-4.4
		c1.4-1.8,3.2-2.8,5.3-3.4c2.3-0.6,4.6-0.7,7-0.6c1.6,0.1,3.2,0.3,4.6,1c1.5,0.7,2.8,1.8,3.6,3.3c0.1,0.2,0.2,0.2,0.4,0.2
		c3.9,0,7.7,0,11.6,0c0.1,0,0.2,0,0.3,0c0-0.1,0-0.1,0-0.1c-0.3-2.5-1.3-4.6-3-6.4c-2-2.1-4.5-3.3-7.2-4.2c-0.4-0.1-0.7-0.2-1-0.3h0
		c-0.1,0-0.5-0.1-0.6-0.1c-1.9-0.5-3.9-0.8-5.9-0.9c-4.1-0.3-8.1-0.3-12.1,0.4c-0.9,0.1-1.8,0.4-2.7,0.6h0l-0.6,0.1
		c-1.4,0.4-2.8,0.9-4.1,1.6c-3.9,1.9-6.6,4.8-7.8,9c-1.1,3.6-1.1,7.2-0.4,10.9c0.5,2.7,1.7,5.1,3.5,7.1c2,2.2,4.6,3.6,7.4,4.5
		c0.9,0.3,1.9,0.6,2.8,0.8h0.3c0.1,0,0.1,0.1,0.2,0.1c4.5,0.9,9.1,1.2,13.7,0.6c1.1-0.1,2.1-0.4,3.2-0.6h0.2c0.1,0,0.2-0.1,0.4-0.1
		c2.5-0.8,4.7-2.1,6.5-4.1c0.2-0.2,0.5-0.5,0.8-0.8v4.8h6.7V58.5H164z"/>
	<path class="st0" d="M164,97.4v6.1h9.4c0,0.3,0,0.6-0.1,0.9c-0.2,1-0.8,1.8-1.6,2.5c-1.6,1.4-3.5,2-5.5,2.4
		c-1.8,0.3-3.6,0.3-5.4,0.2c-1.8-0.1-3.6-0.4-5.3-1.1c-2.7-1.1-4.5-3-5.3-5.8c-0.5-1.9-0.6-3.8-0.4-5.7c0.2-1.6,0.8-3.1,1.8-4.4
		c1.4-1.8,3.2-2.8,5.3-3.4c2.3-0.6,4.6-0.7,7-0.6c1.6,0.1,3.2,0.3,4.6,1c1.5,0.7,2.8,1.8,3.6,3.3c0.1,0.2,0.2,0.2,0.4,0.2
		c3.9,0,7.7,0,11.6,0c0.1,0,0.2,0,0.3,0c0-0.1,0-0.1,0-0.1c-0.3-2.5-1.3-4.6-3-6.4c-2-2.1-4.5-3.3-7.2-4.2c-0.4-0.1-0.7-0.2-1-0.3h0
		c-0.1,0-0.5-0.1-0.6-0.1c-1.9-0.5-3.9-0.8-5.9-0.9c-4.1-0.3-8.1-0.3-12.1,0.4c-0.9,0.1-1.8,0.4-2.7,0.6h0l-0.6,0.1
		c-1.4,0.4-2.8,0.9-4.1,1.6c-3.9,1.9-6.6,4.8-7.8,9c-1.1,3.6-1.1,7.2-0.4,10.9c0.5,2.7,1.7,5.1,3.5,7.1c2,2.2,4.6,3.6,7.4,4.5
		c0.9,0.3,1.9,0.6,2.8,0.8h0.3c0.1,0,0.1,0.1,0.2,0.1c4.5,0.9,9.1,1.2,13.7,0.6c1.1-0.1,2.1-0.4,3.2-0.6h0.2c0.1,0,0.2-0.1,0.4-0.1
		c2.5-0.8,4.7-2.1,6.5-4.1c0.2-0.2,0.5-0.5,0.8-0.8v4.8h6.7V97.4H164z"/>
	<circle class="st1" cx="47" cy="45.3" r="3.2"/>
	<circle class="st1" cx="224.9" cy="114.6" r="3.2"/>
	<polygon class="st0" points="5.8,43.1 15.8,43.1 15.8,69.1 42.5,69.1 42.5,76.8 5.8,76.8 	"/>
	<polygon class="st0" points="60.1,43.1 48.1,55 48.1,76.8 84.7,76.8 84.7,69.9 58.2,69.9 58.2,62.7 83.3,62.7 83.3,56.4 58.2,56.4 
		58.2,49.9 84.7,49.9 84.7,43.1 	"/>
	<polygon class="st0" points="48.1,82 48.1,94 48.1,115.7 84.7,115.7 84.7,108.8 58.2,108.8 58.2,101.6 83.3,101.6 83.3,95.3 
		58.2,95.3 58.2,88.8 84.7,88.8 84.7,82 	"/>
	<polygon class="st0" points="220.5,108.8 201.4,108.8 201.4,101.6 226.4,101.6 226.4,95.3 201.4,95.3 201.4,88.8 227.8,88.8 
		227.8,82 191.3,82 191.3,94 191.3,115.7 213.6,115.7 	"/>
	<polyline class="st3" points="47,45.2 88.9,3.3 250.9,85.1 223,116.7 	"/>
</g>
<g id="Layer_2">
</g>
</svg>
