<?xml version="1.0" encoding="UTF-8"?><svg id="Layer_2" xmlns="http://www.w3.org/2000/svg" xmlns:xlink="http://www.w3.org/1999/xlink" viewBox="0 0 777.41 818.78"><defs><style>.cls-1{stroke:url(#New_Gradient_Swatch_3-3);}.cls-1,.cls-2,.cls-3,.cls-4,.cls-5{stroke-miterlimit:10;stroke-width:44px;}.cls-1,.cls-2,.cls-4,.cls-5{fill:none;}.cls-6{fill:#fff;}.cls-7{fill:#1f3be9;}.cls-2{stroke:url(#New_Gradient_Swatch_3);}.cls-3{fill:url(#New_Gradient_Swatch_4);stroke:url(#New_Gradient_Swatch_3-2);}.cls-4{stroke:#ee7f64;}.cls-5{stroke:#5affaf;}</style><linearGradient id="New_Gradient_Swatch_3" x1="636.69" y1="325.95" x2="749.26" y2="325.95" gradientUnits="userSpaceOnUse"><stop offset="0" stop-color="#fff"/><stop offset="1" stop-color="#567ce8"/></linearGradient><linearGradient id="New_Gradient_Swatch_4" x1="122" y1="695.06" x2="328.5" y2="695.06" gradientUnits="userSpaceOnUse"><stop offset="0" stop-color="#ee7f64"/><stop offset="1" stop-color="#fff"/></linearGradient><linearGradient id="New_Gradient_Swatch_3-2" x1="110.26" y1="695.06" x2="340.24" y2="695.06" xlink:href="#New_Gradient_Swatch_3"/><linearGradient id="New_Gradient_Swatch_3-3" x1="103.88" y1="153.34" x2="275.32" y2="153.34" xlink:href="#New_Gradient_Swatch_3"/></defs><g id="Layer_1-2"><path class="cls-5" d="m25,293.03c-4.07,12.65-4.1,26.58.53,39.74l124.45,354.17c8.95,25.47,33.28,42.28,60.27,41.64l375.29-8.92c26.99-.64,50.49-18.59,58.22-44.45l54.03-180.79"/><path class="cls-5" d="m697.79,494.42l53.46-178.89c7.73-25.86-2.07-53.77-24.28-69.11L418.11,33.05c-22.21-15.34-51.78-14.64-73.23,1.74"/><path class="cls-4" d="m549.92,83.57l-374.59,24.55c-26.94,1.77-49.67,20.68-56.32,46.84L26.6,518.8c-6.65,26.16,4.31,53.63,27.14,68.04l317.48,200.32c22.83,14.41,52.34,12.47,73.1-4.79l288.62-240.04c20.76-17.26,28.04-45.92,18.03-71l-139.1-348.67c-10-25.07-35.01-40.85-61.95-39.09Z"/><line class="cls-2" x1="728.83" y1="415.81" x2="657.12" y2="236.09"/><path class="cls-4" d="m328.5,760.2l42.72,26.96c22.83,14.41,52.34,12.47,73.1-4.79l288.62-240.04c20.76-17.26,28.04-45.92,18.03-71l-22.15-55.52"/><line class="cls-3" x1="122" y1="629.91" x2="328.5" y2="760.2"/><path class="cls-5" d="m344.88,34.78L46.5,262.59c-10.37,7.91-17.7,18.62-21.5,30.44"/><line class="cls-1" x1="261.97" y1="98.09" x2="117.23" y2="208.59"/><circle class="cls-7" cx="110.82" cy="212.87" r="22"/><circle class="cls-6" cx="262.2" cy="97.78" r="22"/><circle class="cls-7" cx="656.88" cy="236.27" r="22"/><circle class="cls-6" cx="729.32" cy="415.69" r="22"/><circle class="cls-6" cx="328.13" cy="760.05" r="22"/><circle class="cls-7" cx="121.96" cy="629.66" r="22"/><path class="cls-5" d="m420.31,723.59l165.23-3.93c26.99-.64,50.49-18.59,58.22-44.45l54.03-180.79"/></g></svg>